<?xml version="1.0" encoding="UTF-8"?>
<svg id="Layer_1" data-name="Layer 1" xmlns="http://www.w3.org/2000/svg" viewBox="0 0 134.14 126.06">
  <defs>
    <style>
      .cls-1 {
        fill: #231f20;
        stroke-width: 0px;
      }
    </style>
  </defs>
  <path class="cls-1" d="m62.75,9.63l8.1-.18.36,7.92,7.56-.18.18,7.56,8.65-.18v9.37l-8.28.18-.36,7.92-7.2.18v6.66l14.05-.18.9,8.1,14.95.18.36-8.1h-7.74l-.18-7.2,16.57-.9.36,7.74,7.56.18.18,7.02,8.28.72.36,8.1-7.74.72-.54,8.28h-8.1l-.72,8.1-14.95.18.36-10.09h6.84v-5.76l-15.49.36-.54,6.48-15.13,1.08-.36,7.56,8.47.54.36,7.38,7.92-.36.54,9.37h-8.1l-.18,7.92-7.2.18v8.47l-9.91.36v-9.55h-8.65l.36-7.74-8.1-.54-.36-7.38,7.38-.36.18-7.92,9.19-.72.54-6.48h-17.29l-.18-8.65-14.41-.36-.36,7.38,8.1.72-.18,8.65-16.39-.54.36-7.92-8.28-.36v-7.38h-7.74l-.36-8.65,7.2-.18.72-7.92,7.38-.18.54-7.02,16.93-.18v7.38l-8.28.9-.54,6.66h15.67v-7.56l16.21-.18-.72-6.84-8.47-.72.18-7.2-7.92-.54.72-9.19,8.1-.18v-7.2l7.56-.18.72-7.56Zm.08,22.98l7.82.18.18-6.36h-8v6.18Zm-.46,32.08l7.82.18.18-6.36h-8v6.18Zm2.36,33.04l6.31.23.15-8.08h-6.46v7.85Z"/>
</svg>