<?xml version="1.0" encoding="UTF-8"?>
<svg id="Layer_1" data-name="Layer 1" xmlns="http://www.w3.org/2000/svg" viewBox="0 0 233.3 220.49">
  <defs>
    <style>
      .cls-1, .cls-2 {
        stroke-width: 0px;
      }

      .cls-2 {
        fill: #231f20;
      }
    </style>
  </defs>
  <path class="cls-2" d="m106.13,193.85l.54,7.81,6.76-.45,1.05,9.01,7.96,1.05-.45-9.91h7.51l.6-7.06,7.51.3.6-8.71-7.96-.3-.15-8.86-7.81.6.15-9.16,13.66-.15.6-7.06,18.01-.75.3,9.91-8.41.9.75,6.15,13.96.3-.15-7.51,8.11-.6.15-7.06-8.41-.6.3-8.56-8.56.6-.15-9.46,7.66-.45.3-6.76,17.86-.3.15,8.26-7.66.9v6.91h13.81l-.3-8.11,8.56.15.6-7.21-8.26-.75-.75-7.06h-7.51s-.15-9.46-.15-9.46l8.26-.3.15-7.66,16.66.15.3,8.11-7.21.75.75,7.36,12.46-.3.6-8.56,7.96.45.45-9.01,7.36.15.45-6.76-7.66.3-1.05-7.81h-8.26s-.45-7.51-.45-7.51l-13.96.6v5.4l7.96-.6v9.01l-18.01.15v-8.11l-7.06,1.35-.3-9.01h7.66l-.3-8.11,9.61.45.45-7.81-8.71-.45-.6-7.06-15.16-.15,1.05,6.91h6.45l.15,7.36-16.21.15-.45-6.3-6.76.3-.3-9.01,6.91-.75.6-8.11,7.21-.45.15-7.06-7.06-.15-.45-7.51-15.76-.45.45,7.51,7.36.3.9,8.11-16.81-.15-.6-6.91-15.16-1.2-.75-7.81,9.01.45v-8.41l7.36.45.45-7.81-8.26-.15.15-6.91-7.66-.75-.45-7.96-7.21.15-1.35,7.96-7.81.45.3,7.06-7.66.15-.15,7.21,8.41.75.45,7.21,7.66.3.15,8.86-16.21-.15-.45,9.01h-15.91l-.15-9.61,8.41-.3.15-6.6-15.46.15-.3,7.21-8.71.75.15,7.21,8.41-.15-.3,8.86,8.11.3.15,6.91-8.71.9.9,8.26-17.11-.15-.15-8.86,8.26-.6.15-7.36-15.31.6-.3,8.11-7.66.15.15,7.21,6.76.3.15,7.06,8.86-.45.3,8.56-8.11,1.05-.15,8.41-17.56.45.3-9.01,8.71-.3-.15-7.66-15.91.6-.3,7.36-7.06.15-.3,8.41h-9.01l.9,8.11,7.81.15-.3,7.81,8.71.6-.3,6.6,15.16.15.75-7.36-7.96.45v-8.56l16.36-.15.45,6.91,8.56.15-.3,9.01-8.41.3-.3,7.66-8.56,1.2.15,6.3,8.11-.3v8.56l14.86.75,1.05-7.06-8.11-1.65v-8.26l17.56-.3.15,8.26h7.81v8.86l-7.96.6-.3,7.36-8.26.75.3,6.6h7.66l.15,7.81,14.71.15.6-6.91-7.51.15.15-8.86,16.36-.15-.45,7.06,15.61.15.3,8.86-7.06.3-.3,7.96-8.16.93.35,7.22m14.56-135.8l8.1-.18.36,7.92,7.56-.18.18,7.56,8.65-.18v9.37l-8.28.18-.36,7.92-7.2.18v6.66l14.05-.18.9,8.1,14.95.18.36-8.1h-7.74l-.18-7.2,16.57-.9.36,7.74,7.56.18.18,7.02,7.28.72.36,8.1-6.74.72-.54,8.28h-8.1l-.72,8.1-14.95.18.36-10.09h6.84v-5.76l-15.49.36-.54,6.48-15.13,1.08-.36,7.56,8.47.54.36,7.38,7.92-.36.54,9.37h-8.1l-.18,7.92-7.2.18v8.47l-9.91.36v-9.55h-8.65l.36-7.74-8.1-.54-.36-7.38,7.38-.36.18-7.92,9.19-.72.54-6.48h-17.29l-.18-8.65-14.41-.36-.36,7.38,8.1.72-.18,8.65-16.39-.54.36-7.92-8.28-.36v-7.38h-6.74l-.36-8.65,6.2-.18.72-7.92,7.38-.18.54-7.02,16.93-.18v7.38l-8.28.9-.54,6.66h15.67v-7.56l16.21-.18-.72-6.84-8.47-.72.18-7.2-7.92-.54.72-9.19,8.1-.18v-7.2l7.56-.18.72-7.56Z"/>
  <polygon class="cls-2" points="113.65 106.91 113.12 115.11 121.5 115.11 121.85 106.74 113.65 106.91"/>
  <polygon class="cls-2" points="112.34 74.11 112.52 82.66 120.72 82.14 120.72 73.41 112.34 74.11"/>
  <polygon class="cls-1" points="114.96 147.74 121.28 147.97 121.42 139.89 114.96 139.89 114.96 147.74"/>
</svg>